<?xml version="1.0" encoding="UTF-8" standalone="no"?>
<svg
   width="15.999"
   height="20"
   viewBox="0 0 15.999 20"
   version="1.1"
   id="svg1"
   sodipodi:docname="icon-tree-1.svg"
   inkscape:version="1.3.2 (091e20ef0f, 2023-11-25, custom)"
   xmlns:inkscape="http://www.inkscape.org/namespaces/inkscape"
   xmlns:sodipodi="http://sodipodi.sourceforge.net/DTD/sodipodi-0.dtd"
   xmlns="http://www.w3.org/2000/svg"
   xmlns:svg="http://www.w3.org/2000/svg">
  <defs
     id="defs1" />
  <sodipodi:namedview
     id="namedview1"
     pagecolor="#ffffff"
     bordercolor="#000000"
     borderopacity="0.25"
     inkscape:showpageshadow="2"
     inkscape:pageopacity="0.0"
     inkscape:pagecheckerboard="0"
     inkscape:deskcolor="#d1d1d1"
     inkscape:zoom="16.5625"
     inkscape:cx="-3.3509434"
     inkscape:cy="13.554717"
     inkscape:window-width="1920"
     inkscape:window-height="1015"
     inkscape:window-x="0"
     inkscape:window-y="0"
     inkscape:window-maximized="1"
     inkscape:current-layer="svg1" />
  <path
     style="fill:#c01717;fill-opacity:1"
     d="m 4.594,17.46 c 0,0.547 0.443,0.991 0.99,0.991 0.548,0 0.991,-0.444 0.991,-0.991 0,-0.547 -0.443,-0.991 -0.991,-0.991 -0.547,0 -0.99,0.444 -0.99,0.991 z"
     id="path10" />
  <path
     style="fill:#c01717;fill-opacity:1"
     d="M 5.594,12.098 6.05,12.536 5.939,13.157 6.496,12.859 7.052,13.157 6.941,12.536 7.396,12.098 6.771,12.012 6.497,11.445 6.222,12.012 Z"
     id="path9" />
  <path
     style="fill:#c01717;fill-opacity:1"
     d="m 7.379,10.048 c 0,0.348 0.282,0.631 0.631,0.631 0.348,0 0.631,-0.283 0.631,-0.631 C 8.641,9.699 8.358,9.416 8.01,9.416 7.661,9.417 7.379,9.7 7.379,10.048 Z"
     id="path8" />
  <path
     style="fill:#c01717;fill-opacity:1"
     d="m 7.379,7.396 c 0,0.349 0.282,0.632 0.631,0.632 0.348,0 0.631,-0.283 0.631,-0.632 0,-0.348 -0.283,-0.631 -0.631,-0.631 -0.349,0 -0.631,0.283 -0.631,0.631 z"
     id="path7" />
  <path
     style="fill:#c01717;fill-opacity:1"
     d="m 8.799,15.001 c 0,-0.425 -0.346,-0.77 -0.77,-0.77 -0.426,0 -0.77,0.344 -0.77,0.77 0,0.425 0.344,0.77 0.77,0.77 0.424,0 0.77,-0.345 0.77,-0.77 z"
     id="path6" />
  <path
     style="fill:#c01717;fill-opacity:1"
     d="m 9.023,12.088 c 0,0.349 0.282,0.632 0.631,0.632 0.349,0 0.631,-0.283 0.631,-0.632 0,-0.349 -0.282,-0.631 -0.631,-0.631 -0.349,0 -0.631,0.282 -0.631,0.631 z"
     id="path5" />
  <path
     style="fill:#c01717;fill-opacity:1"
     d="m 10.356,16.195 -0.379,0.78 -0.857,0.119 0.624,0.601 -0.152,0.854 0.765,-0.409 0.765,0.409 -0.152,-0.854 0.625,-0.601 -0.859,-0.119 z"
     id="path4" />
  <path
     style="fill:#c01717;fill-opacity:1"
     d="M 4.699,14.18 C 3.664,14.18 2.656,13.926 2.034,13.508 4,12.563 5.517,11.086 6.067,9.468 5.554,9.468 4.54,9.256 4.133,8.925 5.899,7.948 7.311,6.136 8,4.529 c 0.689,1.607 2.101,3.419 3.866,4.396 -0.406,0.331 -1.421,0.543 -1.934,0.543 0.55,1.619 2.067,3.095 4.033,4.041 -0.622,0.417 -1.63,0.672 -2.664,0.672 0.361,1.439 2.312,3.508 4.698,4.334 C 13.831,19.506 10.916,20 8.003,20 5.083,20 2.164,19.503 0,18.515 2.387,17.688 4.336,15.62 4.699,14.18 Z"
     id="path3" />
  <path
     style="fill:#d4af37;fill-opacity:1"
     d="M 7.011,2.39 6,1.433 7.389,1.244 8,0 8.611,1.244 10,1.433 8.989,2.39 9.235,3.75 8,3.099 6.765,3.75 Z"
     id="path1" />
</svg>
