<?xml version="1.0" encoding="UTF-8" standalone="no"?>
<svg
   clip-rule="evenodd"
   fill-rule="evenodd"
   stroke-linejoin="round"
   stroke-miterlimit="2"
   viewBox="0 0 19.995001 19.995001"
   version="1.1"
   id="svg1"
   sodipodi:docname="icon-close.svg"
   inkscape:version="1.3.2 (091e20ef0f, 2023-11-25, custom)"
   width="19.995001"
   height="19.995001"
   xmlns:inkscape="http://www.inkscape.org/namespaces/inkscape"
   xmlns:sodipodi="http://sodipodi.sourceforge.net/DTD/sodipodi-0.dtd"
   xmlns="http://www.w3.org/2000/svg"
   xmlns:svg="http://www.w3.org/2000/svg">
  <defs
     id="defs1" />
  <sodipodi:namedview
     id="namedview1"
     pagecolor="#ffffff"
     bordercolor="#000000"
     borderopacity="0.25"
     inkscape:showpageshadow="2"
     inkscape:pageopacity="0.0"
     inkscape:pagecheckerboard="0"
     inkscape:deskcolor="#d1d1d1"
     inkscape:zoom="16.5625"
     inkscape:cx="0.99622641"
     inkscape:cy="10.354717"
     inkscape:window-width="1920"
     inkscape:window-height="1015"
     inkscape:window-x="0"
     inkscape:window-y="0"
     inkscape:window-maximized="1"
     inkscape:current-layer="svg1" />
  <path
     d="m 9.997,0 c 5.518,0 9.998,4.48 9.998,9.997 0,5.518 -4.48,9.998 -9.998,9.998 C 4.48,19.995 0,15.515 0,9.997 0,4.48 4.48,0 9.997,0 Z m 0,8.933 L 7.276,6.211 C 7.13,6.065 6.937,5.992 6.745,5.992 c -0.404,0 -0.75,0.324 -0.75,0.749 0,0.193 0.073,0.384 0.219,0.531 l 2.722,2.722 -2.728,2.728 c -0.147,0.147 -0.22,0.34 -0.22,0.531 0,0.427 0.35,0.75 0.751,0.75 0.192,0 0.384,-0.073 0.53,-0.219 l 2.728,-2.728 2.729,2.728 c 0.146,0.146 0.338,0.219 0.53,0.219 0.401,0 0.75,-0.323 0.75,-0.75 0,-0.191 -0.073,-0.384 -0.22,-0.531 L 11.059,9.994 13.776,7.277 c 0.146,-0.147 0.219,-0.338 0.219,-0.531 0,-0.425 -0.346,-0.75 -0.75,-0.75 -0.192,0 -0.385,0.073 -0.531,0.22 z"
     fill-rule="nonzero"
     id="path1"
     style="fill:#fbfbfb;fill-opacity:1" />
</svg>
