<?xml version="1.0" encoding="UTF-8" standalone="no"?>
<svg
   width="24"
   height="24"
   viewBox="0 0 24 24"
   version="1.1"
   id="svg1"
   sodipodi:docname="icon-current-location.svg"
   inkscape:version="1.3.2 (091e20ef0f, 2023-11-25, custom)"
   xmlns:inkscape="http://www.inkscape.org/namespaces/inkscape"
   xmlns:sodipodi="http://sodipodi.sourceforge.net/DTD/sodipodi-0.dtd"
   xmlns="http://www.w3.org/2000/svg"
   xmlns:svg="http://www.w3.org/2000/svg">
  <defs
     id="defs1" />
  <sodipodi:namedview
     id="namedview1"
     pagecolor="#ffffff"
     bordercolor="#000000"
     borderopacity="0.25"
     inkscape:showpageshadow="2"
     inkscape:pageopacity="0.0"
     inkscape:pagecheckerboard="0"
     inkscape:deskcolor="#d1d1d1"
     inkscape:zoom="11.711456"
     inkscape:cx="0.89655803"
     inkscape:cy="6.9589981"
     inkscape:window-width="1920"
     inkscape:window-height="1015"
     inkscape:window-x="0"
     inkscape:window-y="0"
     inkscape:window-maximized="1"
     inkscape:current-layer="svg1" />
  <path
     d="M14.172 13.843l.526 3.152-2.698-1.656-2.698 1.657.526-3.152-2.195-2.024 3.121-.52 1.246-2.769 1.246 2.769 3.121.52-2.195 2.023zm3.764 1.291l1.48 8.866-7.416-4.554-7.416 4.554 1.48-8.866-6.064-5.592 8.331-1.386 3.669-8.156 3.669 8.155 8.331 1.387-6.064 5.592zm-1.216 4.864l-.935-5.601 3.853-3.553-5.354-.891-2.284-5.078-2.284 5.077-5.354.891 3.853 3.553-.935 5.602 4.72-2.899 4.72 2.899z"
     id="path1"
     style="fill:#ffbf00;fill-opacity:1" />
</svg>
