<?xml version="1.0" encoding="UTF-8" standalone="no"?>
<svg
   width="24"
   height="24"
   viewBox="0 0 24 24"
   version="1.1"
   id="svg1"
   sodipodi:docname="icon-location.svg"
   inkscape:version="1.3.2 (091e20ef0f, 2023-11-25, custom)"
   xmlns:inkscape="http://www.inkscape.org/namespaces/inkscape"
   xmlns:sodipodi="http://sodipodi.sourceforge.net/DTD/sodipodi-0.dtd"
   xmlns="http://www.w3.org/2000/svg"
   xmlns:svg="http://www.w3.org/2000/svg">
  <defs
     id="defs1" />
  <sodipodi:namedview
     id="namedview1"
     pagecolor="#ffffff"
     bordercolor="#000000"
     borderopacity="0.25"
     inkscape:showpageshadow="2"
     inkscape:pageopacity="0.0"
     inkscape:pagecheckerboard="0"
     inkscape:deskcolor="#d1d1d1"
     inkscape:zoom="11.711456"
     inkscape:cx="-4.995109"
     inkscape:cy="13.789916"
     inkscape:window-width="1920"
     inkscape:window-height="1015"
     inkscape:window-x="0"
     inkscape:window-y="0"
     inkscape:window-maximized="1"
     inkscape:current-layer="svg1" />
  <path
     d="M24 11h-2.051c-.469-4.725-4.224-8.48-8.949-8.95v-2.05h-2v2.05c-4.725.47-8.48 4.225-8.949 8.95h-2.051v2h2.051c.469 4.725 4.224 8.48 8.949 8.95v2.05h2v-2.05c4.725-.469 8.48-4.225 8.949-8.95h2.051v-2zm-11 8.931v-3.931h-2v3.931c-3.611-.454-6.478-3.32-6.931-6.931h3.931v-2h-3.931c.453-3.611 3.32-6.477 6.931-6.931v3.931h2v-3.931c3.611.454 6.478 3.319 6.931 6.931h-3.931v2h3.931c-.453 3.611-3.32 6.477-6.931 6.931zm1-7.931c0 1.104-.896 2-2 2s-2-.896-2-2 .896-2 2-2 2 .896 2 2z"
     id="path1"
     style="fill:#fbfbfb;fill-opacity:1" />
</svg>
