<?xml version="1.0" encoding="UTF-8" standalone="no"?>
<svg
   height="24"
   viewBox="0 -960 960 960"
   width="24"
   version="1.1"
   id="svg1"
   sodipodi:docname="icon-euro.svg"
   inkscape:version="1.3.2 (091e20ef0f, 2023-11-25, custom)"
   xmlns:inkscape="http://www.inkscape.org/namespaces/inkscape"
   xmlns:sodipodi="http://sodipodi.sourceforge.net/DTD/sodipodi-0.dtd"
   xmlns="http://www.w3.org/2000/svg"
   xmlns:svg="http://www.w3.org/2000/svg">
  <defs
     id="defs1" />
  <sodipodi:namedview
     id="namedview1"
     pagecolor="#ffffff"
     bordercolor="#000000"
     borderopacity="0.25"
     inkscape:showpageshadow="2"
     inkscape:pageopacity="0.0"
     inkscape:pagecheckerboard="0"
     inkscape:deskcolor="#d1d1d1"
     inkscape:zoom="11.711456"
     inkscape:cx="-14.216849"
     inkscape:cy="15.583032"
     inkscape:window-width="1920"
     inkscape:window-height="1015"
     inkscape:window-x="0"
     inkscape:window-y="0"
     inkscape:window-maximized="1"
     inkscape:current-layer="svg1" />
  <path
     d="M600-120q-118 0-210-67T260-360H120v-80h122q-2-11-2-20v-40q0-9 2-20H120v-80h140q38-106 130-173t210-67q69 0 130.5 24T840-748l-70 70q-35-29-78.5-45.5T600-740q-75 0-136.5 38.5T370-600h230v80H344q-2 11-3 20t-1 20q0 11 1 20t3 20h256v80H370q32 63 93.5 101.5T600-220q48 0 92.5-16.5T770-282l70 70q-48 44-109.5 68T600-120Z"
     id="path1"
     style="fill:#c01717;fill-opacity:1" />
</svg>
